<svg xmlns="http://www.w3.org/2000/svg" width="500" height="500" viewBox="0 0 500 500" fill="none"><path d="M16 163.59C154.39 268.318 308.488 -67.9317 483.532 89.9072C348.883 2.38517 172.717 312.079 16 163.59Z" fill="#4166B0"></path><g opacity="0.65">
<mask id="mask0_1_60" style="mask-type:luminance" maskUnits="userSpaceOnUse" x="33" y="290" width="429" height="149">
<path d="M461.091 290.011H33.2051V438.874H461.091V290.011Z" fill="white"></path>
</mask>
<g mask="url(#mask0_1_60)">
<path d="M35.4493 399.601L121.849 432.889L367.958 296.37L459.595 324.422" stroke="#4166B0" stroke-width="5.184" stroke-miterlimit="10"></path>
</g>
</g><path d="M440.145 324.422C440.145 335.268 448.748 343.871 459.595 343.871C470.442 343.871 479.044 335.268 479.044 324.422C479.044 313.575 470.442 304.972 459.595 304.972C448.748 304.972 440.145 313.575 440.145 324.422Z" fill="#4166B0"></path><path d="M347.387 296.37C347.387 307.216 355.99 315.819 366.836 315.819C377.683 315.819 386.286 307.216 386.286 296.37C386.286 285.523 377.683 276.92 366.836 276.92C355.99 276.92 347.387 285.523 347.387 296.37Z" fill="#4166B0"></path><path d="M102.774 432.889C102.774 443.736 111.377 452.338 122.223 452.338C133.07 452.338 141.673 443.736 141.673 432.889C141.673 422.042 133.07 413.44 122.223 413.44C111.377 413.44 102.774 422.042 102.774 432.889Z" fill="#4166B0"></path><path d="M16 398.479C16 409.325 24.6026 417.928 35.4493 417.928C46.2961 417.928 54.8987 409.325 54.8987 398.479C54.8987 387.632 46.2961 379.029 35.4493 379.029C24.6026 379.029 16 387.632 16 398.479Z" fill="#4166B0"></path><path d="M78.4623 307.216L16.374 286.645L72.1039 321.429L78.4623 307.216Z" fill="#92A1B6"></path><path d="M139.055 291.507L78.4623 307.216L72.1039 321.429L147.283 324.421L139.055 291.507Z" fill="#8293B5"></path><path d="M325.319 177.803L138.681 291.507L146.909 324.422L340.655 226.053L325.319 177.803Z" fill="#7386B3"></path><path d="M388.904 170.323L325.319 177.803L340.655 226.053L392.644 209.222L388.904 170.323Z" fill="#637BB1"></path><path d="M388.904 170.323L447.252 186.78L446.878 202.863L392.644 209.222L388.904 170.323Z" fill="#5370B0"></path><path d="M447.252 186.78L483.532 212.962L446.878 202.863L447.252 186.78Z" fill="#4166B0"></path></svg>